# xmcd
#
# Track frame offsets: 
#        150
#        12813
#        27203
#        42915
#        57758
#        72160
#        87318
#        102593
#        120683
#        136145
#        152653
#        168095
#        184043
#        199845
#        213230
#        227658
#        245730
#        261390
#        276615
#        294090
#
# Disc length: 4162 seconds
#
# Revision: 2
# Processed by: cddbd v1.5.2PL0 Copyright (c) Steve Scherf et al.
# Submitted via: ExactAudioCopyFreeDBPlugin 1.0
#
DISCID=1c104014
DTITLE=The Bellamy Brothers - Let Your Love Flow - 20 Greatest Hits
DYEAR=1995
DGENRE=Country
TTITLE0=Let Your Love Flow
TTITLE1=If I Said You Had A Beautiful Body
TTITLE2=Sugar Daddy
TTITLE3=Lovers Live Longer
TTITLE4=Get Into Reggae Cowboy
TTITLE5=Redneck Girl
TTITLE6=I Need More Of You
TTITLE7=Old Hippie
TTITLE8=Lie To You For Your Love
TTITLE9=Feelin' The Feelin
TTITLE10=Kids Of The Baby Boom
TTITLE11=Crazy From The Heart
TTITLE12=Ripp Of The Knob
TTITLE13=Not
TTITLE14=Miami Moon
TTITLE15=Life Is A Beach
TTITLE16=Cowboy Beat
TTITLE17=Can I Come Home To You
TTITLE18=Hard Way To Make An Easy Livin
TTITLE19=She's Gone With The Wind
EXTD=
EXTT0=
EXTT1=
EXTT2=
EXTT3=
EXTT4=
EXTT5=
EXTT6=
EXTT7=
EXTT8=
EXTT9=
EXTT10=
EXTT11=
EXTT12=
EXTT13=
EXTT14=
EXTT15=
EXTT16=
EXTT17=
EXTT18=
EXTT19=
PLAYORDER=
